<svg width="173" height="42" viewBox="0 0 173 42" fill="none" xmlns="http://www.w3.org/2000/svg">
<path d="M1.90431 3.62563H9.97831V6.17763H4.67631V9.52163C4.89631 9.47763 5.16031 9.43363 5.46831 9.38963C5.77631 9.34563 6.07697 9.32363 6.37031 9.32363C7.07431 9.32363 7.70497 9.41163 8.26231 9.58763C8.81964 9.74897 9.29631 10.0203 9.69231 10.4016C10.0883 10.7683 10.389 11.2523 10.5943 11.8536C10.8143 12.455 10.9243 13.1883 10.9243 14.0536C10.9243 15.7843 10.4916 17.0823 9.62631 17.9476C8.76097 18.813 7.47764 19.2456 5.77631 19.2456C5.57097 19.2456 5.30697 19.2383 4.98431 19.2236C4.66164 19.209 4.31697 19.187 3.95031 19.1576C3.58364 19.143 3.21697 19.1136 2.85031 19.0696C2.49831 19.0256 2.18297 18.967 1.90431 18.8936V3.62563ZM5.97431 16.7816C6.59031 16.7816 7.08164 16.591 7.44831 16.2096C7.82964 15.8283 8.02031 15.183 8.02031 14.2736C8.02031 13.731 7.96164 13.2983 7.84431 12.9756C7.72697 12.653 7.56564 12.4036 7.36031 12.2276C7.16964 12.0516 6.93497 11.9343 6.65631 11.8756C6.39231 11.817 6.09897 11.7876 5.77631 11.7876C5.61497 11.7876 5.40964 11.8096 5.16031 11.8536C4.92564 11.883 4.76431 11.9123 4.67631 11.9416V16.6716C4.80831 16.701 4.99897 16.7303 5.24831 16.7596C5.49764 16.7743 5.73964 16.7816 5.97431 16.7816ZM12.0152 11.3256C12.0152 8.71497 12.4625 6.72763 13.3572 5.36363C14.2519 3.99963 15.6159 3.31763 17.4492 3.31763C18.4025 3.31763 19.2239 3.5083 19.9132 3.88963C20.6025 4.2563 21.1672 4.79163 21.6072 5.49563C22.0472 6.18497 22.3699 7.0283 22.5752 8.02563C22.7952 9.0083 22.9052 10.1083 22.9052 11.3256C22.9052 13.9363 22.4432 15.9236 21.5192 17.2876C20.6099 18.6516 19.2532 19.3336 17.4492 19.3336C16.4812 19.3336 15.6525 19.1503 14.9632 18.7836C14.2885 18.4023 13.7312 17.867 13.2912 17.1776C12.8512 16.4736 12.5285 15.6303 12.3232 14.6476C12.1179 13.6503 12.0152 12.543 12.0152 11.3256ZM14.9192 11.3256C14.9192 12.103 14.9632 12.829 15.0512 13.5036C15.1392 14.1636 15.2859 14.7356 15.4912 15.2196C15.6965 15.7036 15.9532 16.085 16.2612 16.3636C16.5839 16.6423 16.9799 16.7816 17.4492 16.7816C18.2999 16.7816 18.9379 16.349 19.3632 15.4836C19.7885 14.6183 20.0012 13.2323 20.0012 11.3256C20.0012 10.5776 19.9572 9.87363 19.8692 9.21363C19.7812 8.53897 19.6345 7.95963 19.4292 7.47563C19.2385 6.97697 18.9819 6.5883 18.6592 6.30963C18.3365 6.0163 17.9332 5.86963 17.4492 5.86963C15.7625 5.86963 14.9192 7.6883 14.9192 11.3256ZM30.8051 6.17763H28.4731C28.3704 8.9643 28.2311 11.2963 28.0551 13.1736C27.8791 15.0363 27.5418 16.459 27.0431 17.4416C26.8671 17.7936 26.6618 18.087 26.4271 18.3216C26.2071 18.5416 25.9798 18.7176 25.7451 18.8496C25.5251 18.967 25.2978 19.0476 25.0631 19.0916C24.8284 19.1503 24.6158 19.1796 24.4251 19.1796C24.1171 19.1796 23.8458 19.1503 23.6111 19.0916C23.3764 19.0476 23.1564 18.9743 22.9511 18.8716L23.2591 16.3636C23.5231 16.4663 23.7871 16.4736 24.0511 16.3856C24.3151 16.283 24.5351 16.041 24.7111 15.6596C24.8871 15.337 25.0411 14.8676 25.1731 14.2516C25.3051 13.621 25.4151 12.8143 25.5031 11.8316C25.6058 10.849 25.6791 9.68297 25.7231 8.33363C25.7818 6.9843 25.8258 5.41497 25.8551 3.62563H33.5771V19.0256H30.8051V6.17763ZM35.5703 3.62563H43.2703V6.17763H38.3423V9.96163H42.8083V12.5136H38.3423V16.4736H43.3583V19.0256H35.5703V3.62563ZM45.0234 3.62563H52.7234V6.17763H47.7954V9.96163H52.2614V12.5136H47.7954V16.4736H52.8114V19.0256H45.0234V3.62563Z" fill="black"/>
<path d="M59.9123 16.6936H62.4203V8.04763L62.7063 6.55163L61.8043 7.84963L60.3523 8.97163L59.1423 7.49763L63.3883 3.36163H64.9283V16.6936H67.3923V19.0256H59.9123V16.6936ZM72.5302 16.9356C73.3222 16.9356 73.9235 16.679 74.3342 16.1656C74.7448 15.6523 74.9502 14.9923 74.9502 14.1856C74.9502 13.2616 74.7082 12.5943 74.2242 12.1836C73.7402 11.773 73.0435 11.5676 72.1342 11.5676L70.7042 11.6556V3.62563H77.1062V6.17763H72.9482V9.32363L73.6742 9.23563C74.8622 9.27963 75.8082 9.71963 76.5122 10.5556C77.2162 11.3916 77.5682 12.565 77.5682 14.0756C77.5682 14.941 77.4435 15.7036 77.1942 16.3636C76.9448 17.0236 76.6002 17.5736 76.1602 18.0136C75.7348 18.4536 75.2215 18.7836 74.6202 19.0036C74.0188 19.2236 73.3662 19.3336 72.6622 19.3336C72.1342 19.3336 71.5988 19.275 71.0562 19.1576C70.5282 19.055 70.0955 18.9156 69.7582 18.7396L70.4402 16.5176C70.9828 16.7963 71.6795 16.9356 72.5302 16.9356ZM90.8539 6.17763H88.5219C88.4192 8.9643 88.2799 11.2963 88.1039 13.1736C87.9279 15.0363 87.5906 16.459 87.0919 17.4416C86.9159 17.7936 86.7106 18.087 86.4759 18.3216C86.2559 18.5416 86.0286 18.7176 85.7939 18.8496C85.5739 18.967 85.3466 19.0476 85.1119 19.0916C84.8772 19.1503 84.6646 19.1796 84.4739 19.1796C84.1659 19.1796 83.8946 19.1503 83.6599 19.0916C83.4252 19.0476 83.2052 18.9743 82.9999 18.8716L83.3079 16.3636C83.5719 16.4663 83.8359 16.4736 84.0999 16.3856C84.3639 16.283 84.5839 16.041 84.7599 15.6596C84.9359 15.337 85.0899 14.8676 85.2219 14.2516C85.3539 13.621 85.4639 12.8143 85.5519 11.8316C85.6546 10.849 85.7279 9.68297 85.7719 8.33363C85.8306 6.9843 85.8746 5.41497 85.9039 3.62563H93.6259V19.0256H90.8539V6.17763ZM95.6192 3.62563H103.319V6.17763H98.3912V9.96163H102.857V12.5136H98.3912V16.4736H103.407V19.0256H95.6192V3.62563ZM114.334 6.17763H110.682V19.0256H107.91V6.17763H104.258V3.62563H114.334V6.17763Z" fill="#EAA012"/>
<path d="M5.69831 30.9924H3.01031V37.9524H1.85831V29.9524H6.85031V37.9524H5.69831V30.9924ZM8.73331 29.9524H9.54931L9.72531 30.8164H9.78931C10.184 30.1124 10.8026 29.7604 11.6453 29.7604C12.488 29.7604 13.1173 30.0751 13.5333 30.7044C13.96 31.3337 14.1733 32.3631 14.1733 33.7924C14.1733 34.4644 14.104 35.0724 13.9653 35.6164C13.8266 36.1497 13.6293 36.6084 13.3733 36.9924C13.1173 37.3657 12.8026 37.6537 12.4293 37.8564C12.0666 38.0484 11.6613 38.1444 11.2133 38.1444C10.904 38.1444 10.6586 38.1231 10.4773 38.0804C10.296 38.0484 10.0986 37.9737 9.88531 37.8564V41.1524H8.73331V29.9524ZM9.88531 36.6884C10.0346 36.8164 10.2 36.9177 10.3813 36.9924C10.5733 37.0671 10.824 37.1044 11.1333 37.1044C11.6986 37.1044 12.1466 36.8164 12.4773 36.2404C12.808 35.6644 12.9733 34.8431 12.9733 33.7764C12.9733 33.3284 12.9413 32.9231 12.8773 32.5604C12.824 32.1977 12.7333 31.8884 12.6053 31.6324C12.4773 31.3657 12.312 31.1631 12.1093 31.0244C11.9173 30.8751 11.6773 30.8004 11.3893 30.8004C10.6106 30.8004 10.1093 31.2751 9.88531 32.2244V36.6884ZM20.4704 37.4084C20.2144 37.6431 19.8891 37.8244 19.4944 37.9524C19.0998 38.0804 18.6838 38.1444 18.2464 38.1444C17.7451 38.1444 17.3078 38.0484 16.9344 37.8564C16.5718 37.6537 16.2678 37.3711 16.0224 37.0084C15.7878 36.6351 15.6118 36.1924 15.4944 35.6804C15.3878 35.1684 15.3344 34.5924 15.3344 33.9524C15.3344 32.5871 15.5851 31.5471 16.0864 30.8324C16.5878 30.1177 17.2971 29.7604 18.2144 29.7604C18.5131 29.7604 18.8064 29.7977 19.0944 29.8724C19.3931 29.9471 19.6598 30.0964 19.8944 30.3204C20.1291 30.5444 20.3158 30.8591 20.4544 31.2644C20.6038 31.6697 20.6784 32.1977 20.6784 32.8484C20.6784 33.0297 20.6678 33.2271 20.6464 33.4404C20.6358 33.6431 20.6198 33.8564 20.5984 34.0804H16.5344C16.5344 34.5391 16.5718 34.9551 16.6464 35.3284C16.7211 35.7017 16.8384 36.0217 16.9984 36.2884C17.1584 36.5444 17.3611 36.7471 17.6064 36.8964C17.8624 37.0351 18.1771 37.1044 18.5504 37.1044C18.8384 37.1044 19.1211 37.0511 19.3984 36.9444C19.6864 36.8377 19.9051 36.7097 20.0544 36.5604L20.4704 37.4084ZM19.5744 33.1204C19.5958 32.3204 19.4838 31.7337 19.2384 31.3604C18.9931 30.9871 18.6571 30.8004 18.2304 30.8004C17.7398 30.8004 17.3504 30.9871 17.0624 31.3604C16.7744 31.7337 16.6038 32.3204 16.5504 33.1204H19.5744ZM22.2958 29.9684C22.5945 29.9471 22.9198 29.9204 23.2718 29.8884C23.6238 29.8564 24.0451 29.8404 24.5358 29.8404C25.3998 29.8404 26.0185 30.0057 26.3918 30.3364C26.7651 30.6564 26.9518 31.1471 26.9518 31.8084C26.9518 32.1817 26.8611 32.5444 26.6798 32.8964C26.5091 33.2484 26.2158 33.5151 25.7998 33.6964V33.7604C26.3118 33.8777 26.6745 34.0964 26.8878 34.4164C27.1011 34.7257 27.2078 35.1524 27.2078 35.6964C27.2078 36.5284 26.9625 37.1311 26.4718 37.5044C25.9811 37.8777 25.2505 38.0644 24.2798 38.0644C23.9171 38.0644 23.5705 38.0484 23.2398 38.0164C22.9091 37.9951 22.5945 37.9684 22.2958 37.9364V29.9684ZM23.4478 36.9604C23.6078 36.9817 23.7571 36.9977 23.8958 37.0084C24.0451 37.0191 24.2265 37.0244 24.4398 37.0244C24.9838 37.0244 25.3785 36.9124 25.6238 36.6884C25.8798 36.4644 26.0078 36.1017 26.0078 35.6004C26.0078 35.2164 25.9011 34.9017 25.6878 34.6564C25.4745 34.4004 25.0851 34.2724 24.5198 34.2724H23.4478V36.9604ZM24.6318 33.3604C24.7811 33.3604 24.9251 33.3284 25.0638 33.2644C25.2025 33.1897 25.3251 33.0937 25.4318 32.9764C25.5491 32.8591 25.6398 32.7257 25.7038 32.5764C25.7678 32.4164 25.7998 32.2511 25.7998 32.0804C25.7998 31.6644 25.6985 31.3604 25.4958 31.1684C25.3038 30.9764 24.9678 30.8804 24.4878 30.8804C24.2318 30.8804 24.0291 30.8857 23.8798 30.8964C23.7305 30.9071 23.5865 30.9177 23.4478 30.9284V33.3604H24.6318ZM28.3969 33.9524C28.3969 32.5124 28.6423 31.4564 29.1329 30.7844C29.6343 30.1017 30.3436 29.7604 31.2609 29.7604C32.2423 29.7604 32.9623 30.1071 33.4209 30.8004C33.8903 31.4937 34.1249 32.5444 34.1249 33.9524C34.1249 35.4031 33.8743 36.4644 33.3729 37.1364C32.8716 37.8084 32.1676 38.1444 31.2609 38.1444C30.2796 38.1444 29.5543 37.7977 29.0849 37.1044C28.6263 36.4111 28.3969 35.3604 28.3969 33.9524ZM29.5969 33.9524C29.5969 34.4217 29.6236 34.8484 29.6769 35.2324C29.7409 35.6164 29.8369 35.9471 29.9649 36.2244C30.1036 36.5017 30.2796 36.7204 30.4929 36.8804C30.7063 37.0297 30.9623 37.1044 31.2609 37.1044C31.8156 37.1044 32.2316 36.8591 32.5089 36.3684C32.7863 35.8671 32.9249 35.0617 32.9249 33.9524C32.9249 33.4937 32.8929 33.0724 32.8289 32.6884C32.7756 32.2937 32.6796 31.9577 32.5409 31.6804C32.4129 31.4031 32.2423 31.1897 32.0289 31.0404C31.8156 30.8804 31.5596 30.8004 31.2609 30.8004C30.7169 30.8004 30.3009 31.0511 30.0129 31.5524C29.7356 32.0537 29.5969 32.8537 29.5969 33.9524ZM40.0712 37.5524C39.8045 37.7551 39.5005 37.9044 39.1592 38.0004C38.8178 38.0964 38.4605 38.1444 38.0872 38.1444C37.5752 38.1444 37.1432 38.0484 36.7912 37.8564C36.4392 37.6537 36.1512 37.3711 35.9272 37.0084C35.7138 36.6351 35.5538 36.1924 35.4472 35.6804C35.3512 35.1577 35.3032 34.5817 35.3032 33.9524C35.3032 32.5871 35.5432 31.5471 36.0232 30.8324C36.5138 30.1177 37.2125 29.7604 38.1192 29.7604C38.5352 29.7604 38.8925 29.7977 39.1912 29.8724C39.4898 29.9471 39.7458 30.0431 39.9592 30.1604L39.6392 31.1684C39.2125 30.9231 38.7485 30.8004 38.2472 30.8004C37.6712 30.8004 37.2338 31.0564 36.9352 31.5684C36.6472 32.0697 36.5032 32.8644 36.5032 33.9524C36.5032 34.3897 36.5352 34.8004 36.5992 35.1844C36.6632 35.5684 36.7698 35.9044 36.9192 36.1924C37.0685 36.4697 37.2605 36.6937 37.4952 36.8644C37.7298 37.0244 38.0232 37.1044 38.3752 37.1044C38.6525 37.1044 38.9085 37.0564 39.1432 36.9604C39.3885 36.8644 39.5858 36.7524 39.7352 36.6244L40.0712 37.5524ZM42.8028 33.8564L40.6908 29.9524H42.0668L43.2508 32.2404L43.5708 33.1364L43.9068 32.2404L45.1228 29.9524H46.3868L44.2588 33.7924L46.5148 37.9524H45.2028L43.8588 35.4404L43.5068 34.4804L43.1388 35.4404L41.7948 37.9524H40.5308L42.8028 33.8564ZM47.1626 33.9524C47.1626 32.5124 47.4079 31.4564 47.8986 30.7844C48.3999 30.1017 49.1092 29.7604 50.0266 29.7604C51.0079 29.7604 51.7279 30.1071 52.1866 30.8004C52.6559 31.4937 52.8906 32.5444 52.8906 33.9524C52.8906 35.4031 52.6399 36.4644 52.1386 37.1364C51.6372 37.8084 50.9332 38.1444 50.0266 38.1444C49.0452 38.1444 48.3199 37.7977 47.8506 37.1044C47.3919 36.4111 47.1626 35.3604 47.1626 33.9524ZM48.3626 33.9524C48.3626 34.4217 48.3892 34.8484 48.4426 35.2324C48.5066 35.6164 48.6026 35.9471 48.7306 36.2244C48.8692 36.5017 49.0452 36.7204 49.2586 36.8804C49.4719 37.0297 49.7279 37.1044 50.0266 37.1044C50.5812 37.1044 50.9972 36.8591 51.2746 36.3684C51.5519 35.8671 51.6906 35.0617 51.6906 33.9524C51.6906 33.4937 51.6586 33.0724 51.5946 32.6884C51.5412 32.2937 51.4452 31.9577 51.3066 31.6804C51.1786 31.4031 51.0079 31.1897 50.7946 31.0404C50.5812 30.8804 50.3252 30.8004 50.0266 30.8004C49.4826 30.8004 49.0666 31.0511 48.7786 31.5524C48.5012 32.0537 48.3626 32.8537 48.3626 33.9524ZM60.2448 39.9844H59.4448L59.2528 37.9524H54.5168L54.3088 39.9844H53.5248V36.9124H54.2768C54.3408 36.7951 54.4261 36.5817 54.5328 36.2724C54.6501 35.9524 54.7621 35.5151 54.8688 34.9604C54.9755 34.3951 55.0661 33.7017 55.1408 32.8804C55.2261 32.0591 55.2741 31.0831 55.2848 29.9524H59.3008V36.9124H60.2448V39.9844ZM58.1488 36.9124V30.9924H56.3408C56.3195 31.4511 56.2875 31.9524 56.2448 32.4964C56.2128 33.0404 56.1595 33.5844 56.0848 34.1284C56.0101 34.6617 55.9195 35.1737 55.8128 35.6644C55.7061 36.1551 55.5835 36.5711 55.4448 36.9124H58.1488ZM65.4361 33.3444L65.5321 32.1284H65.4681L64.9081 33.4724L62.2041 37.9524H61.4521V29.9524H62.6041V34.7044L62.5081 35.8724H62.5721L63.1001 34.5604L65.8361 29.9524H66.5881V37.9524H65.4361V33.3444ZM73.7953 33.2004L73.9073 31.6804H73.8433L73.3633 33.0404L71.8753 36.1124H71.4593L69.9073 33.0404L69.4753 31.6804H69.3953L69.5233 33.1844V37.9524H68.4833V29.9524H69.6353L71.3793 33.4244L71.7313 34.4644H71.7633L72.1473 33.3924L73.7633 29.9524H74.9473V37.9524H73.7953V33.2004ZM80.2333 29.9684C80.532 29.9471 80.8573 29.9204 81.2093 29.8884C81.5613 29.8564 81.9826 29.8404 82.4733 29.8404C83.3373 29.8404 83.956 30.0057 84.3293 30.3364C84.7026 30.6564 84.8893 31.1471 84.8893 31.8084C84.8893 32.1817 84.7986 32.5444 84.6173 32.8964C84.4466 33.2484 84.1533 33.5151 83.7373 33.6964V33.7604C84.2493 33.8777 84.612 34.0964 84.8253 34.4164C85.0386 34.7257 85.1453 35.1524 85.1453 35.6964C85.1453 36.5284 84.9 37.1311 84.4093 37.5044C83.9186 37.8777 83.188 38.0644 82.2173 38.0644C81.8546 38.0644 81.508 38.0484 81.1773 38.0164C80.8466 37.9951 80.532 37.9684 80.2333 37.9364V29.9684ZM81.3853 36.9604C81.5453 36.9817 81.6946 36.9977 81.8333 37.0084C81.9826 37.0191 82.164 37.0244 82.3773 37.0244C82.9213 37.0244 83.316 36.9124 83.5613 36.6884C83.8173 36.4644 83.9453 36.1017 83.9453 35.6004C83.9453 35.2164 83.8386 34.9017 83.6253 34.6564C83.412 34.4004 83.0226 34.2724 82.4573 34.2724H81.3853V36.9604ZM82.5693 33.3604C82.7186 33.3604 82.8626 33.3284 83.0013 33.2644C83.14 33.1897 83.2626 33.0937 83.3693 32.9764C83.4866 32.8591 83.5773 32.7257 83.6413 32.5764C83.7053 32.4164 83.7373 32.2511 83.7373 32.0804C83.7373 31.6644 83.636 31.3604 83.4333 31.1684C83.2413 30.9764 82.9053 30.8804 82.4253 30.8804C82.1693 30.8804 81.9666 30.8857 81.8173 30.8964C81.668 30.9071 81.524 30.9177 81.3853 30.9284V33.3604H82.5693ZM86.6064 30.4324C86.9158 30.2404 87.2891 30.0911 87.7264 29.9844C88.1744 29.8777 88.6438 29.8244 89.1344 29.8244C89.5824 29.8244 89.9398 29.8937 90.2064 30.0324C90.4838 30.1604 90.6971 30.3417 90.8464 30.5764C91.0064 30.8004 91.1078 31.0617 91.1504 31.3604C91.2038 31.6484 91.2304 31.9524 91.2304 32.2724C91.2304 32.9124 91.2144 33.5364 91.1824 34.1444C91.1611 34.7524 91.1504 35.3284 91.1504 35.8724C91.1504 36.2777 91.1611 36.6564 91.1824 37.0084C91.2144 37.3497 91.2678 37.6751 91.3424 37.9844H90.4624L90.1904 37.0404H90.1264C89.9664 37.3177 89.7318 37.5577 89.4224 37.7604C89.1131 37.9631 88.6971 38.0644 88.1744 38.0644C87.5984 38.0644 87.1238 37.8671 86.7504 37.4724C86.3878 37.0671 86.2064 36.5124 86.2064 35.8084C86.2064 35.3497 86.2811 34.9657 86.4304 34.6564C86.5904 34.3471 86.8091 34.0964 87.0864 33.9044C87.3744 33.7124 87.7104 33.5791 88.0944 33.5044C88.4891 33.4191 88.9264 33.3764 89.4064 33.3764C89.5131 33.3764 89.6198 33.3764 89.7264 33.3764C89.8331 33.3764 89.9451 33.3817 90.0624 33.3924C90.0944 33.0617 90.1104 32.7684 90.1104 32.5124C90.1104 31.9044 90.0198 31.4777 89.8384 31.2324C89.6571 30.9871 89.3264 30.8644 88.8464 30.8644C88.5478 30.8644 88.2224 30.9124 87.8704 31.0084C87.5184 31.0937 87.2251 31.2057 86.9904 31.3444L86.6064 30.4324ZM90.0784 34.3044C89.9718 34.2937 89.8651 34.2884 89.7584 34.2884C89.6518 34.2777 89.5451 34.2724 89.4384 34.2724C89.1824 34.2724 88.9318 34.2937 88.6864 34.3364C88.4411 34.3791 88.2224 34.4537 88.0304 34.5604C87.8384 34.6671 87.6838 34.8111 87.5664 34.9924C87.4598 35.1737 87.4064 35.4031 87.4064 35.6804C87.4064 36.1071 87.5078 36.4377 87.7104 36.6724C87.9238 36.9071 88.1958 37.0244 88.5264 37.0244C88.9744 37.0244 89.3211 36.9177 89.5664 36.7044C89.8118 36.4911 89.9824 36.2564 90.0784 36.0004V34.3044ZM93.0927 37.9524V29.9524H94.2447V36.9124H96.3247V29.9524H97.4767V36.9124H99.5567V29.9524H100.709V37.9524H93.0927ZM106.577 33.3444L106.673 32.1284H106.609L106.049 33.4724L103.345 37.9524H102.593V29.9524H103.745V34.7044L103.649 35.8724H103.713L104.241 34.5604L106.977 29.9524H107.729V37.9524H106.577V33.3444ZM112.663 33.9524C112.663 32.5124 112.908 31.4564 113.399 30.7844C113.9 30.1017 114.609 29.7604 115.527 29.7604C116.508 29.7604 117.228 30.1071 117.687 30.8004C118.156 31.4937 118.391 32.5444 118.391 33.9524C118.391 35.4031 118.14 36.4644 117.639 37.1364C117.137 37.8084 116.433 38.1444 115.527 38.1444C114.545 38.1444 113.82 37.7977 113.351 37.1044C112.892 36.4111 112.663 35.3604 112.663 33.9524ZM113.863 33.9524C113.863 34.4217 113.889 34.8484 113.943 35.2324C114.007 35.6164 114.103 35.9471 114.231 36.2244C114.369 36.5017 114.545 36.7204 114.759 36.8804C114.972 37.0297 115.228 37.1044 115.527 37.1044C116.081 37.1044 116.497 36.8591 116.775 36.3684C117.052 35.8671 117.191 35.0617 117.191 33.9524C117.191 33.4937 117.159 33.0724 117.095 32.6884C117.041 32.2937 116.945 31.9577 116.807 31.6804C116.679 31.4031 116.508 31.1897 116.295 31.0404C116.081 30.8804 115.825 30.8004 115.527 30.8004C114.983 30.8004 114.567 31.0511 114.279 31.5524C114.001 32.0537 113.863 32.8537 113.863 33.9524ZM121.987 34.4164L120.195 37.9524H118.899L120.867 34.2884L121.299 33.8084L120.643 33.2004L119.043 29.9524H120.259L121.923 33.4084H122.579V29.9524H123.731V33.5684L124.323 33.3444L125.987 29.9524H127.187L125.507 33.2004L124.995 33.7124L125.651 34.3524L127.491 37.9524H126.163L124.371 34.3524H123.731V37.9524H122.579V34.1924L121.987 34.4164ZM132.42 33.3444L132.516 32.1284H132.452L131.892 33.4724L129.188 37.9524H128.436V29.9524H129.588V34.7044L129.492 35.8724H129.556L130.084 34.5604L132.82 29.9524H133.572V37.9524H132.42V33.3444ZM141.292 39.9844H140.492L140.3 37.9524H135.564L135.356 39.9844H134.572V36.9124H135.324C135.388 36.7951 135.473 36.5817 135.58 36.2724C135.697 35.9524 135.809 35.5151 135.916 34.9604C136.022 34.3951 136.113 33.7017 136.188 32.8804C136.273 32.0591 136.321 31.0831 136.332 29.9524H140.348V36.9124H141.292V39.9844ZM139.196 36.9124V30.9924H137.388C137.366 31.4511 137.334 31.9524 137.292 32.4964C137.26 33.0404 137.206 33.5844 137.132 34.1284C137.057 34.6617 136.966 35.1737 136.86 35.6644C136.753 36.1551 136.63 36.5711 136.492 36.9124H139.196ZM142.419 30.4324C142.728 30.2404 143.102 30.0911 143.539 29.9844C143.987 29.8777 144.456 29.8244 144.947 29.8244C145.395 29.8244 145.752 29.8937 146.019 30.0324C146.296 30.1604 146.51 30.3417 146.659 30.5764C146.819 30.8004 146.92 31.0617 146.963 31.3604C147.016 31.6484 147.043 31.9524 147.043 32.2724C147.043 32.9124 147.027 33.5364 146.995 34.1444C146.974 34.7524 146.963 35.3284 146.963 35.8724C146.963 36.2777 146.974 36.6564 146.995 37.0084C147.027 37.3497 147.08 37.6751 147.155 37.9844H146.275L146.003 37.0404H145.939C145.779 37.3177 145.544 37.5577 145.235 37.7604C144.926 37.9631 144.51 38.0644 143.987 38.0644C143.411 38.0644 142.936 37.8671 142.563 37.4724C142.2 37.0671 142.019 36.5124 142.019 35.8084C142.019 35.3497 142.094 34.9657 142.243 34.6564C142.403 34.3471 142.622 34.0964 142.899 33.9044C143.187 33.7124 143.523 33.5791 143.907 33.5044C144.302 33.4191 144.739 33.3764 145.219 33.3764C145.326 33.3764 145.432 33.3764 145.539 33.3764C145.646 33.3764 145.758 33.3817 145.875 33.3924C145.907 33.0617 145.923 32.7684 145.923 32.5124C145.923 31.9044 145.832 31.4777 145.651 31.2324C145.47 30.9871 145.139 30.8644 144.659 30.8644C144.36 30.8644 144.035 30.9124 143.683 31.0084C143.331 31.0937 143.038 31.2057 142.803 31.3444L142.419 30.4324ZM145.891 34.3044C145.784 34.2937 145.678 34.2884 145.571 34.2884C145.464 34.2777 145.358 34.2724 145.251 34.2724C144.995 34.2724 144.744 34.2937 144.499 34.3364C144.254 34.3791 144.035 34.4537 143.843 34.5604C143.651 34.6671 143.496 34.8111 143.379 34.9924C143.272 35.1737 143.219 35.4031 143.219 35.6804C143.219 36.1071 143.32 36.4377 143.523 36.6724C143.736 36.9071 144.008 37.0244 144.339 37.0244C144.787 37.0244 145.134 36.9177 145.379 36.7044C145.624 36.4911 145.795 36.2564 145.891 36.0004V34.3044ZM152.825 34.3844H150.057V37.9524H148.905V29.9524H150.057V33.3444H152.825V29.9524H153.977V37.9524H152.825V34.3844ZM159.827 33.3444L159.923 32.1284H159.859L159.299 33.4724L156.595 37.9524H155.843V29.9524H156.995V34.7044L156.899 35.8724H156.963L157.491 34.5604L160.227 29.9524H160.979V37.9524H159.827V33.3444ZM166.122 34.6404L165.146 34.8324L163.53 37.9524H162.17L163.658 35.2004L164.17 34.6244C163.733 34.5391 163.359 34.3151 163.05 33.9524C162.751 33.5897 162.602 33.0991 162.602 32.4804C162.602 31.5204 162.858 30.8271 163.37 30.4004C163.893 29.9737 164.602 29.7604 165.498 29.7604C165.829 29.7604 166.138 29.7871 166.426 29.8404C166.725 29.8831 167.007 29.9364 167.274 30.0004V37.9524H166.122V34.6404ZM166.122 33.9044V30.9444C166.015 30.8911 165.893 30.8537 165.754 30.8324C165.615 30.8111 165.493 30.8004 165.386 30.8004C164.874 30.8004 164.479 30.9337 164.202 31.2004C163.935 31.4671 163.802 31.8724 163.802 32.4164C163.802 32.9071 163.957 33.2911 164.266 33.5684C164.575 33.8351 164.986 33.9577 165.498 33.9364L166.122 33.9044ZM169.733 26.7524H170.933V32.3044L170.693 35.1204H169.973L169.733 32.3044V26.7524ZM169.525 37.2324C169.525 36.9337 169.595 36.7097 169.733 36.5604C169.883 36.4111 170.08 36.3364 170.325 36.3364C170.571 36.3364 170.763 36.4111 170.901 36.5604C171.051 36.7097 171.125 36.9337 171.125 37.2324C171.125 37.5417 171.051 37.7711 170.901 37.9204C170.763 38.0697 170.571 38.1444 170.325 38.1444C170.08 38.1444 169.883 38.0697 169.733 37.9204C169.595 37.7711 169.525 37.5417 169.525 37.2324Z" fill="black"/>
</svg>
